:FULLY-SPECIFIED
:FORCE-ALL-JOINTS-BE-3DOF
:DEGREES
99
root 0.64583 17.4683 16.5679 -0.273922 2.1529 2.63262
lfemur -8.47712 1.0399 -25.1591
ltibia 54.6106 -0 0
lfoot -2.53703 -0.301011 0.055878
ltoes -13.4808 0 0
rfemur -15.55 -7.16335 18.7443
rtibia 86.1962 -0 0
rfoot 14.6077 -6.52562 -0.0083831
rtoes 22.0483 -0 0
lowerback 17.8024 -1.114 -3.49344
upperback 2.60535 -2.24094 -1.61798
thorax -7.09608 -1.0176 0.770169
lowerneck -7.08871 0.0792751 -1.55641
upperneck -8.04165 0.290922 2.11927
head -1.3023 0.168192 0.959418
lclavicle -3.22031e-14 1.82882e-14 0
lhumerus -30.276 -17.4569 87.5162
lradius 106.644 -0 0
lwrist 28.3883 0 0
lhand -36.4142 7.56966 0.00757845
lfingers 7.12502 -0 0
lthumb -9.50948 37.3353 0.0072505
rclavicle -3.22031e-14 1.82882e-14 0
rhumerus -45.9158 7.86695 -84.9261
rradius 82.1758 -0 0
rwrist -0.149416 0 0
rhand -44.5824 38.2987 0.000122439
rfingers 7.12502 -0 0
rthumb -17.3817 9.05588 0.000115178
100
root 0.650546 17.4696 17.1089 -0.285652 1.78816 2.51271
lfemur -8.04014 1.54994 -24.755
ltibia 56.4334 -0 0
lfoot -1.24131 -0.304323 0.0517658
ltoes -13.2137 0 0
rfemur -15.7685 -6.64251 19.1406
rtibia 84.0275 -0 0
rfoot 13.526 -6.52096 -0.0089653
rtoes 21.49 -0 0
lowerback 17.792 -1.13869 -3.26323
upperback 2.5638 -2.22021 -1.48659
thorax -7.13794 -1.01152 0.775932
lowerneck -7.07724 0.204426 -1.48667
upperneck -8.02856 0.439588 1.84083
head -1.29874 0.243065 0.860836
lclavicle -3.22031e-14 1.82882e-14 0
lhumerus -30.9406 -17.6031 87.799
lradius 106.6 -0 0
lwrist 28.351 0 0
lhand -36.4672 7.62109 0.00688058
lfingers 7.12502 -0 0
lthumb -9.56061 37.3842 0.00660078
rclavicle -3.22031e-14 1.82882e-14 0
rhumerus -45.6053 8.0476 -84.9387
rradius 82.582 -0 0
rwrist -0.289395 0 0
rhand -44.5785 38.3126 0.000126264
rfingers 7.12502 -0 0
rthumb -17.3781 9.06949 0.000118774
101
root 0.655262 17.471 17.6499 -0.295234 1.4131 2.38812
lfemur -7.60063 2.06902 -24.3334
ltibia 58.3072 -0 0
lfoot 0.0812469 -0.30956 0.0474017
ltoes -12.9409 0 0
rfemur -15.9863 -6.10797 19.546
rtibia 81.8083 -0 0
rfoot 12.4156 -6.51616 -0.00947426
rtoes 20.911 -0 0
lowerback 17.7815 -1.16357 -3.02651
upperback 2.5215 -2.1982 -1.3517
thorax -7.18074 -1.00498 0.78151
lowerneck -7.06314 0.332644 -1.41492
upperneck -8.01942 0.59199 1.55586
head -1.29661 0.319776 0.759797
lclavicle -3.22031e-14 1.82882e-14 0
lhumerus -31.6241 -17.7462 88.092
lradius 106.554 -0 0
lwrist 28.3154 0 0
lhand -36.5222 7.6759 0.00614922
lfingers 7.12502 -0 0
lthumb -9.61373 37.4365 0.00591852
rclavicle -3.22031e-14 1.82882e-14 0
rhumerus -45.284 8.23281 -84.9519
rradius 83.002 -0 0
rwrist -0.432555 0 0
rhand -44.5747 38.3267 0.000129174
rfingers 7.12502 -0 0
rthumb -17.3743 9.08322 0.000121509
102
root 0.659978 17.4723 18.1909 -0.302697 1.02938 2.25951
lfemur -7.15901 2.59486 -23.8963
ltibia 60.2238 -0 0
lfoot 1.42563 -0.316561 0.0428903
ltoes -12.6632 0 0
rfemur -16.2026 -5.56183 19.9584
rtibia 79.5473 -0 0
rfoot 11.2812 -6.51126 -0.00990091
rtoes 20.3142 -0 0
lowerback 17.7711 -1.18856 -2.78434
upperback 2.47863 -2.17505 -1.21388
thorax -7.22432 -0.998042 0.786907
lowerneck -7.04665 0.463397 -1.34147
upperneck -8.01403 0.747471 1.26548
head -1.29581 0.398004 0.656717
lclavicle -3.22031e-14 1.82882e-14 0
lhumerus -32.3234 -17.8856 88.3941
lradius 106.507 -0 0
lwrist 28.2815 0 0
lhand -36.5791 7.73369 0.0054004
lfingers 7.12502 -0 0
lthumb -9.66856 37.4916 0.00521872
rclavicle -3.22031e-14 1.82882e-14 0
rhumerus -44.9532 8.42182 -84.9657
rradius 83.4338 -0 0
rwrist -0.578329 0 0
rhand -44.5707 38.3409 0.000131133
rfingers 7.12502 -0 0
rthumb -17.3705 9.09705 0.000123351
103
root 0.664694 17.4737 18.7319 -0.308084 0.638673 2.12751
lfemur -6.71576 3.12518 -23.4454
ltibia 62.175 -0 0
lfoot 2.78683 -0.325162 0.0383295
ltoes -12.3819 0 0
rfemur -16.4164 -5.00621 20.3761
rtibia 77.2535 -0 0
rfoot 10.1277 -6.50628 -0.0102377
rtoes 19.7026 -0 0
lowerback 17.7607 -1.21359 -2.53775
upperback 2.43534 -2.1509 -1.07373
thorax -7.26852 -0.990754 0.792128
lowerneck -7.02801 0.596152 -1.26662
upperneck -8.01215 0.90538 0.970839
head -1.29623 0.477434 0.552013
lclavicle -3.22031e-14 1.82882e-14 0
lhumerus -33.0357 -18.0207 88.7039
lradius 106.459 -0 0
lwrist 28.2491 0 0
lhand -36.6374 7.79403 0.00464906
lfingers 7.12502 -0 0
lthumb -9.72482 37.5492 0.00451534
rclavicle -3.22031e-14 1.82882e-14 0
rhumerus -44.6148 8.61388 -84.9797
rradius 83.8752 -0 0
rwrist -0.726152 0 0
rhand -44.5668 38.3551 0.000132121
rfingers 7.12502 -0 0
rthumb -17.3668 9.11093 0.000124278
